# xmcd
# 
# Track frame offsets:
#     150
#     12928
#     24422
#     35592
#     47750
#     60675
#     88669
#     102610
#     119165
#     135160
#     158708
#     173140
#     185158
#     196267
#     210050
#     220257
#     237754
#     251831
#     265670
#     277860
# 
# Disc length: 3853
# 
# Revision: 3
# Processed by: cddbd v1.5.2PL0 Copyright (c) Steve Scherf et al.
# Submitted via: fre:ac v1.0.17
# 
DISCID=160f0b14
DTITLE=B.B. King - Original Greatest Hits - D2
DYEAR=2005
DGENRE=Blues
TTITLE0=Be Careful With A Fool
TTITLE1=Please Accept My Love
TTITLE2=Days Of Old
TTITLE3=Worry, Worry
TTITLE4=Confessin' The Blues
TTITLE5=Sweet Sixteen, Parts 1 and 2
TTITLE6=Ain't Nobody's Business
TTITLE7=Walkin' Dr. Bill
TTITLE8=My Own Fault (Aka It's My Fault)
TTITLE9=You Done Lost Your Good Thing Now
TTITLE10=Downhearted (Aka How Blue Can You Get)
TTITLE11=I'll Survive
TTITLE12=Mashed Potato Twist
TTITLE13=Down Now
TTITLE14=Peace Of Mind
TTITLE15=That Evil Child
TTITLE16=Blues Stay Away From Me
TTITLE17=Rock Me Baby
TTITLE18=Miss Martha King
TTITLE19=When Your Baby Packs Up And Goes
EXTD=
EXTT0=
EXTT1=
EXTT2=
EXTT3=
EXTT4=
EXTT5=
EXTT6=
EXTT7=
EXTT8=
EXTT9=
EXTT10=
EXTT11=
EXTT12=
EXTT13=
EXTT14=
EXTT15=
EXTT16=
EXTT17=
EXTT18=
EXTT19=
PLAYORDER=
